<svg xmlns="http://www.w3.org/2000/svg" viewBox="0 0 159.31 233.33">
    <defs>
        <style>.cls-1{fill:#ccc;}.cls-2{fill:#aaa;}.cls-3{fill:#777;}</style>
    </defs>
    <title>blue raam</title>
    <g id="Layer_2" data-name="Layer 2">
        <g id="Layer_24" data-name="Layer 24">
            <path class="cls-1"
                  d="M120.82,230.83a2.31,2.31,0,0,1-.73-.11l-21.83-6.66a2.49,2.49,0,0,1-1.58-1.44l-4.25-10.29H81.82a2.51,2.51,0,0,1-2.17-1.25,2.48,2.48,0,0,1-2.16,1.25H66.87l-4.24,10.29a2.49,2.49,0,0,1-1.58,1.44l-21.83,6.66a2.31,2.31,0,0,1-.73.11,2.51,2.51,0,0,1-2-1l-6.34-8.67a7.52,7.52,0,0,1,.38-8.84c1.17-1.51,16.06-18.8,17.75-20.76a2.47,2.47,0,0,1,1.89-.87,2.47,2.47,0,0,1,1.67.63l1.57-1.57-1.52-9.06H35.18l-20.33,5.9a2.75,2.75,0,0,1-.7.1,2.5,2.5,0,0,1-2.1-1.16c-.31-.47-7.4-11.6-8.6-13.82-1.73-3.23-1.12-6.35,1.88-9.56,2.18-2.34,40.45-42.33,46.32-48.47V107.5A44,44,0,0,1,58.8,83.9c0-2-.15-6.92-.15-9.73a18.19,18.19,0,0,1,1.21-6.82,2.49,2.49,0,0,1,2.29-1.52h6.34V47.5c0-25.29,8.56-42.87,8.92-43.61a2.5,2.5,0,0,1,4.48,0c.37.74,8.93,18.32,8.93,43.61V65.83h6.33a2.5,2.5,0,0,1,2.3,1.52,18.53,18.53,0,0,1,1.2,6.82c0,2.81-.1,7.77-.15,9.73a43.86,43.86,0,0,1,7.15,23.6v6.16c5.88,6.14,44.15,46.13,46.33,48.47,3,3.21,3.61,6.33,1.87,9.55-1.19,2.23-8.29,13.36-8.59,13.83a2.52,2.52,0,0,1-2.11,1.16,2.74,2.74,0,0,1-.69-.1l-20.33-5.9H107.44l-1.52,9.06,1.57,1.57a2.42,2.42,0,0,1,1.66-.63,2.49,2.49,0,0,1,1.9.87c1.69,2,16.57,19.25,17.74,20.76a7.54,7.54,0,0,1,.39,8.84l-6.34,8.67A2.52,2.52,0,0,1,120.82,230.83Z"/>
            <path class="cls-2"
                  d="M79.65,5s8.67,17.5,8.67,42.5V68.33h8.83a16.19,16.19,0,0,1,1,5.84c0,3.5-.16,10.5-.16,10.5a41.26,41.26,0,0,1,7.16,22.83v7.17s44.67,46.66,47,49.16,2.67,4.5,1.5,6.67-8.5,13.67-8.5,13.67l-20.66-6H105.32l-2.08,12.41,5.91,5.92v-3.33s16.5,19.16,17.67,20.66a5,5,0,0,1,.33,5.84c-1.33,1.83-6.33,8.66-6.33,8.66L99,221.67l-5.5-13.34-.84,1.5H81.82l-.5-1.16-1.67-.34-1.66.34-.5,1.16H66.65l-.83-1.5-5.5,13.34-21.83,6.66-6.34-8.66a5,5,0,0,1,.34-5.84c1.16-1.5,17.66-20.66,17.66-20.66v3.33l5.92-5.92L54,178.17H34.82l-20.67,6s-7.33-11.5-8.5-13.67-.83-4.17,1.5-6.67,47-49.16,47-49.16V107.5a41.22,41.22,0,0,1,7.17-22.83s-.17-7-.17-10.5a16.19,16.19,0,0,1,1-5.84H71V47.5C71,22.5,79.65,5,79.65,5m0-5a5,5,0,0,0-4.48,2.78C74.8,3.54,66,21.63,66,47.5V63.33H62.15a5,5,0,0,0-4.59,3,21,21,0,0,0-1.41,7.81c0,2.52.09,6.73.14,9a46.64,46.64,0,0,0-7.14,24.31v5.16c-7.69,8-43.53,45.49-45.65,47.76-4.69,5-3.81,9.55-2.25,12.45,1.22,2.26,7.93,12.79,8.69,14a5,5,0,0,0,4.21,2.32,5.15,5.15,0,0,0,1.4-.2l20-5.8H49.76l.84,5a3.39,3.39,0,0,0-.45,0,5,5,0,0,0-3.79,1.73c-2.76,3.22-16.64,19.34-17.82,20.86a9.92,9.92,0,0,0-.43,11.85l6.34,8.68a5,5,0,0,0,4,2,5.31,5.31,0,0,0,1.46-.21l21.83-6.67a5,5,0,0,0,3.16-2.88l3.61-8.74h8.94a5,5,0,0,0,2.16-.49,5,5,0,0,0,2.17.49h8.94l3.6,8.74a5,5,0,0,0,3.17,2.88l21.83,6.67a5.21,5.21,0,0,0,1.46.21,5,5,0,0,0,4-2l6.34-8.68a9.92,9.92,0,0,0-.43-11.85c-1.19-1.52-15.06-17.64-17.83-20.86a5,5,0,0,0-3.79-1.73,3.24,3.24,0,0,0-.44,0l.84-5h14.23l20,5.8a5.13,5.13,0,0,0,1.39.2,5,5,0,0,0,4.22-2.32c.76-1.19,7.47-11.72,8.69-14,1.56-2.9,2.44-7.42-2.25-12.45-2.12-2.27-38-39.72-45.66-47.76V107.5A46.76,46.76,0,0,0,103,83.19c0-2.29.13-6.5.13-9a21.32,21.32,0,0,0-1.4-7.81,5,5,0,0,0-4.6-3H93.32V47.5c0-25.87-8.81-44-9.19-44.72A5,5,0,0,0,79.65,0Z"/>
            <path class="cls-3"
                  d="M105.15,107.5a41.57,41.57,0,0,0-5.7-20.56c-5,6.9-12.26,15.91-16.13,16.73s-17.39-.66-28.86-1a36.8,36.8,0,0,0-.31,4.78v7.17s-44.66,46.66-47,49.16-2.66,4.5-1.5,6.67,8.5,13.67,8.5,13.67L25.4,180.9A28.64,28.64,0,0,1,34,169.67c9.66-7.34,22.66-1,32.33-1s30.67-13,44-25.34c3.63-3.35,6.8-8.14,9.51-13.32-8.17-8.55-14.68-15.34-14.68-15.34Z"/>
            <path class="cls-3"
                  d="M153.65,170.5c1.17-2.17.84-4.17-1.5-6.67-.78-.84-6.37-6.69-13.43-14.08a15.07,15.07,0,0,0-3.4,3.25c-5.67,7.67-6.67,18.67-6.33,21.67.11,1,.48,2.94.93,5.07l15.23,4.43S152.49,172.67,153.65,170.5Z"/>
            <path class="cls-3"
                  d="M81.82,209.83H92.65l.84-1.5L99,221.67l21.83,6.66s5-6.83,6.33-8.66a5,5,0,0,0-.33-5.84c-1.17-1.5-17.67-20.66-17.67-20.66v3.33l-5.91-5.92.68-4.08c-4.23-.49-9.5-.7-13.27.5-7.33,2.33-14,12-22,13.67a191.08,191.08,0,0,1-28.43,4.06c-3.74,4.36-7.22,8.44-7.73,9.1a5,5,0,0,0-.34,5.84l6.34,8.66,21.83-6.66,5.5-13.34.83,1.5H77.49l.5-1.16,1.66-.34,1.67.34Z"/>
            <polygon class="cls-2"
                     points="77.99 208.67 77.49 209.83 66.65 209.83 65.82 208.33 64.94 199.92 78.57 199.92 77.99 208.67"/>
            <polygon class="cls-2"
                     points="81.34 208.67 81.84 209.83 92.67 209.83 93.51 208.33 94.38 199.92 80.76 199.92 81.34 208.67"/>
            <path class="cls-2" d="M84.65,56.17V52.33c0-4.16-2.33-6.5-5-6.5s-5,2.34-5,6.5v3.84Z"/>
            <path class="cls-2" d="M74.65,74.5v4.33c0,11.5,5,11.5,5,11.5s5,0,5-11.5V74.5Z"/>
            <path class="cls-2" d="M84.65,73.5V57.17h-10V73.5Z"/>
            <path class="cls-3" d="M87.56,34.67C85.45,16.72,79.65,5,79.65,5s-5.79,11.72-7.9,29.67Z"/>
            <path class="cls-2"
                  d="M79.65,5s8.67,17.5,8.67,42.5V68.33h8.83a16.19,16.19,0,0,1,1,5.84c0,3.5-.16,10.5-.16,10.5a41.26,41.26,0,0,1,7.16,22.83v7.17s44.67,46.66,47,49.16,2.67,4.5,1.5,6.67-8.5,13.67-8.5,13.67l-20.66-6H105.32l-2.08,12.41,5.91,5.92v-3.33s16.5,19.16,17.67,20.66a5,5,0,0,1,.33,5.84c-1.33,1.83-6.33,8.66-6.33,8.66L99,221.67l-5.5-13.34-.84,1.5H81.82l-.5-1.16-1.67-.34-1.66.34-.5,1.16H66.65l-.83-1.5-5.5,13.34-21.83,6.66-6.34-8.66a5,5,0,0,1,.34-5.84c1.16-1.5,17.66-20.66,17.66-20.66v3.33l5.92-5.92L54,178.17H34.82l-20.67,6s-7.33-11.5-8.5-13.67-.83-4.17,1.5-6.67,47-49.16,47-49.16V107.5a41.22,41.22,0,0,1,7.17-22.83s-.17-7-.17-10.5a16.19,16.19,0,0,1,1-5.84H71V47.5C71,22.5,79.65,5,79.65,5m0-5a5,5,0,0,0-4.48,2.78C74.8,3.54,66,21.63,66,47.5V63.33H62.15a5,5,0,0,0-4.59,3,21,21,0,0,0-1.41,7.81c0,2.52.09,6.73.14,9a46.64,46.64,0,0,0-7.14,24.31v5.16c-7.69,8-43.53,45.49-45.65,47.76-4.69,5-3.81,9.55-2.25,12.45,1.22,2.26,7.93,12.79,8.69,14a5,5,0,0,0,4.21,2.32,5.15,5.15,0,0,0,1.4-.2l20-5.8H49.76l.84,5a3.39,3.39,0,0,0-.45,0,5,5,0,0,0-3.79,1.73c-2.76,3.22-16.64,19.34-17.82,20.86a9.92,9.92,0,0,0-.43,11.85l6.34,8.68a5,5,0,0,0,4,2,5.31,5.31,0,0,0,1.46-.21l21.83-6.67a5,5,0,0,0,3.16-2.88l3.61-8.74h8.94a5,5,0,0,0,2.16-.49,5,5,0,0,0,2.17.49h8.94l3.6,8.74a5,5,0,0,0,3.17,2.88l21.83,6.67a5.21,5.21,0,0,0,1.46.21,5,5,0,0,0,4-2l6.34-8.68a9.92,9.92,0,0,0-.43-11.85c-1.19-1.52-15.06-17.64-17.83-20.86a5,5,0,0,0-3.79-1.73,3.24,3.24,0,0,0-.44,0l.84-5h14.23l20,5.8a5.13,5.13,0,0,0,1.39.2,5,5,0,0,0,4.22-2.32c.76-1.19,7.47-11.72,8.69-14,1.56-2.9,2.44-7.42-2.25-12.45-2.12-2.27-38-39.72-45.66-47.76V107.5A46.76,46.76,0,0,0,103,83.19c0-2.29.13-6.5.13-9a21.32,21.32,0,0,0-1.4-7.81,5,5,0,0,0-4.6-3H93.32V47.5c0-25.87-8.81-44-9.19-44.72A5,5,0,0,0,79.65,0Z"/>
        </g>
    </g>
</svg>