<svg xmlns="http://www.w3.org/2000/svg" viewBox="0 0 152.5 233.33"><defs><style>.cls-1{fill:lightgreen;}.cls-2{fill:darkgreen;}.cls-3{fill:green;}.cls-4{fill:#040;}.cls-5{fill:none;stroke:#a5e5ff;stroke-miterlimit:10;stroke-width:2px;}</style></defs><title>blue sufa</title><g id="Layer_2" data-name="Layer 2"><g id="Layer_24" data-name="Layer 24"><path class="cls-1" d="M147.4,167.11V148.88L97.73,107.94v-2.51c0-4.15-5.24-20.19-6.22-24.12s-2.18-9-2.51-11.57-1.64-19.22-2.07-21.18a56,56,0,0,0-1.75-5.46,140.79,140.79,0,0,0-2.07-18.23C81.19,15.43,76.25,5,76.25,5h0s-4.94,10.43-6.86,19.87A140.79,140.79,0,0,0,67.32,43.1a56,56,0,0,0-1.75,5.46c-.43,2-1.74,18.56-2.07,21.18S62,77.38,61,81.31s-6.22,20-6.22,24.12v2.51L5.1,148.88v18.23H59.79L60,185.25l-27.23,24.5v10l3.93,3.06H60.37V212.33l.07,5.65h6.33V200l3.28,22.93H75.4v5.44h1.7v-5.44h5.35L85.73,200v18h6.33l.07-5.65v10.45h23.65l3.93-3.06v-10l-27.23-24.5.23-18.14Z"/><path class="cls-2" d="M97.73,107.94v-2.51c0-4.15-5.24-20.19-6.22-24.12-.2-.8-.4-1.64-.61-2.49C86.58,84.27,81.84,89.43,79,90S67.53,90,58.62,89.46c-1.78,6.05-3.85,13.36-3.85,16v2.51L5.1,148.88v18.23h16A28.53,28.53,0,0,1,29.62,156c9.67-7.33,22.67-1,32.33-1s30.67-13,44-25.33a42.42,42.42,0,0,0,7.14-9.11Z"/><path class="cls-2" d="M147.4,148.88,133.11,137.1a14.42,14.42,0,0,0-2.16,2.27C125.29,147,124.29,158,124.62,161c.13,1.16.61,3.56,1.14,6.07H147.4Z"/><path class="cls-2" d="M77.1,222.89h5.35L85.73,200v18h6.33l.07-5.65v10.45h23.65l3.93-3.06v-10l-27.23-24.5.16-12.76a22.76,22.76,0,0,0-6.35.88c-7.34,2.34-14,12-22,13.67-2.45.51-5.09,1.05-8,1.57L32.79,209.75v10l3.93,3.06H60.37V212.33l.07,5.65h6.33V200l3.28,22.93H75.4v5.44h1.7Z"/><path class="cls-2" d="M83.11,24.87C81.19,15.43,76.25,5,76.25,5h0s-4.94,10.43-6.86,19.87c-.42,2.08-.76,4.29-1,6.44H84.14C83.87,29.16,83.53,27,83.11,24.87Z"/><polyline class="cls-3" points="77.1 222.89 82.45 222.89 85.73 199.97 66.77 199.97 70.05 222.89 75.4 222.89"/><path class="cls-4" d="M74.4,229.33V211.55H72.76V179.48c-.4-1.33-3.18-10.8-3.18-15.65s-.22-52.78-.22-53.26V100.5H83.14v10.06c0,.49-.22,48.31-.22,53.27s-2.78,14.32-3.18,15.65v32.07H78.1v17.78Z"/><path class="cls-1" d="M82.14,101.5v9.06s-.22,48.25-.22,53.27-3.18,15.5-3.18,15.5v31.22H77.1v17.78H75.4V210.55H73.76V179.33s-3.18-10.48-3.18-15.5-.22-53.27-.22-53.27V101.5H82.14m2-2H68.36v11.06c0,.49.22,48.31.22,53.27s2.65,14,3.18,15.8v32.92H73.4v17.78h5.7V212.55h1.64V179.63c.53-1.78,3.18-11,3.18-15.8s.22-52.78.22-53.26V99.5Z"/><path class="cls-3" d="M82.14,71.42V58c0-6.66-3.27-15.29-3.27-15.29H73.63S70.36,51.29,70.36,58V71.42Z"/><path class="cls-3" d="M70.36,72.42V101.5s1.31,3.38,5.89,3.38,5.89-3.38,5.89-3.38V72.42Z"/><path class="cls-4" d="M86.86,162.55a54.49,54.49,0,0,1-1.26-8.08c-.23-5.62-.89-70.58-.9-71.24l0-4.63,2,4.2c.38.8,9.17,19.77,9.94,27.9.45,4.84.61,25.42.76,43.58l.07,8.69L87,163.38Z"/><path class="cls-1" d="M85.7,83.22s9.09,19.52,9.85,27.57c.52,5.5.66,31.86.82,51.22l-8.53.34a54.87,54.87,0,0,1-1.24-7.92c-.23-5.67-.9-71.21-.9-71.21M83.61,74l.09,9.25c0,2.68.67,65.64.9,71.28a55.58,55.58,0,0,0,1.28,8.24l.35,1.66,1.69-.07,8.53-.35,1.93-.07V162l-.06-7.79c-.15-18.15-.31-38.72-.77-43.59-.78-8.31-9.65-27.42-10-28.23L83.61,74Z"/><path class="cls-4" d="M55.12,163l.07-8.69c.15-18.16.31-38.74.76-43.58.77-8.13,9.56-27.1,9.94-27.9l2-4.2,0,4.63c0,.66-.67,65.62-.9,71.24a54.49,54.49,0,0,1-1.26,8.08l-.18.83Z"/><path class="cls-1" d="M66.79,83.22s-.66,65.54-.89,71.21a54.87,54.87,0,0,1-1.24,7.92L56.13,162c.16-19.36.3-45.72.82-51.22.76-8.05,9.84-27.57,9.84-27.57M68.89,74,65,82.38c-.38.81-9.24,19.92-10,28.23-.46,4.87-.62,25.44-.77,43.59L54.13,162v1.94l1.93.07,8.53.35,1.69.07.35-1.66a55.47,55.47,0,0,0,1.28-8.25c.23-5.63.87-68.59.89-71.27l.1-9.26Z"/><path class="cls-3" d="M76.25,5s4.94,10.43,6.86,19.87A140.79,140.79,0,0,1,85.18,43.1a56,56,0,0,1,1.75,5.46c.43,2,1.74,18.56,2.07,21.17s1.53,7.65,2.51,11.58,6.22,20,6.22,24.12v2.51l49.67,40.94v18.23H92.71l-.23,18.14,27.23,24.5v10l-3.93,3.06H92.13V212.33L92.06,218H85.73V200l-3.28,22.93H77.1v5.44H75.4v-5.44H70.05L66.77,200v18H60.44l-.07-5.65v10.45H36.72l-3.93-3.06v-10L60,185.25l-.23-18.14H5.1V148.88l49.67-40.94v-2.51c0-4.15,5.24-20.19,6.22-24.12s2.18-9,2.51-11.58,1.64-19.21,2.07-21.17a56,56,0,0,1,1.75-5.46,140.79,140.79,0,0,1,2.07-18.23C71.31,15.43,76.25,5,76.25,5m0-5a5,5,0,0,0-4.52,2.86c-.21.45-5.23,11.14-7.24,21a141.14,141.14,0,0,0-2.13,18.21,53.65,53.65,0,0,0-1.67,5.38c-.29,1.33-.68,5.35-1.48,14.45-.29,3.24-.56,6.3-.67,7.19-.23,1.84-1,5.53-2.4,11-.25,1-.85,3-1.55,5.39-2.73,9.2-4.82,16.51-4.82,20v.15L1.92,145A5,5,0,0,0,.1,148.88v18.23a5,5,0,0,0,5,5H54.85L55,183.05,29.44,206a5,5,0,0,0-1.65,3.71v10a5,5,0,0,0,1.93,3.95l3.93,3.06a5,5,0,0,0,3.07,1.05H60.37a5,5,0,0,0,4.83-3.69,5,5,0,0,0,4.85,3.8h.35v.44a5,5,0,0,0,5,5h1.7a5,5,0,0,0,5-5v-.44h.35a5,5,0,0,0,4.85-3.8,5,5,0,0,0,4.83,3.69h23.65a5,5,0,0,0,3.07-1.05l3.93-3.06a5,5,0,0,0,1.93-3.95v-10a5,5,0,0,0-1.65-3.71l-25.55-23,.14-10.94H147.4a5,5,0,0,0,5-5V148.88a5,5,0,0,0-1.82-3.86l-47.85-39.44v-.15c0-3.44-2.09-10.75-4.82-20-.7-2.36-1.3-4.4-1.55-5.39C95,74.64,94.19,71,94,69.11c-.11-.89-.38-4-.67-7.19-.8-9.1-1.19-13.12-1.48-14.45a53.65,53.65,0,0,0-1.67-5.38A141.14,141.14,0,0,0,88,23.88c-2-9.88-7-20.57-7.24-21A5,5,0,0,0,76.25,0Z"/><rect class="cls-3" y="129.09" width="2.5" height="45.5"/><rect class="cls-3" x="150" y="129.09" width="2.5" height="45.5"/><path class="cls-5" d="M69.35,101.21s1.54,4,6.9,4,6.9-4,6.9-4"/></g></g></svg>