<svg xmlns="http://www.w3.org/2000/svg" viewBox="0 0 208.13 268.14"><defs><style>.cls-1{fill:#ccc;}.cls-2,.cls-4{fill:#aaa;}.cls-3{fill:#777;}.cls-4{stroke:#596b6a;}.cls-4,.cls-5{stroke-miterlimit:10;stroke-width:2px;}.cls-5{fill:none;stroke:#777;}</style></defs><title>blue saraf</title><g id="Layer_2" data-name="Layer 2"><g id="Layer_24" data-name="Layer 24"><path class="cls-1" d="M103,260.75a2.51,2.51,0,0,1-2.5-2.52v-1.56L79.33,254a2.49,2.49,0,0,1-2.1-1.8c-.18-.63-1.73-6.23-1.71-9.24a7.17,7.17,0,0,1,2.92-6,2.5,2.5,0,0,1,1.21-.41L98,235.4l-4.52-84.88-10.2-3.47a2.52,2.52,0,0,1-1.59-1.64,21.74,21.74,0,0,1-.82-5.57c0-1.15,0-5.86-.06-10.91,0-3.79,0-7.77-.06-10.6l-15.6-1.45a2.51,2.51,0,0,1-2.27-2.51L63,99.66a2.44,2.44,0,0,1,0-.48v-6a3.49,3.49,0,0,1,7,0v3.71l4.12-.23V93.21a3.48,3.48,0,0,1,7,0V96.3l4.2-.23.19-31.89c0-.07,0-.14,0-.21l.94-10a32,32,0,0,1,.45-4.5c1-5.61,4-8.77,6.45-10a7.43,7.43,0,0,1,2.83-4.06l4.45-6.76v0a2.51,2.51,0,0,1,2.5-2.49H105a2.5,2.5,0,0,1,2.5,2.49v0l4.45,6.76a7.52,7.52,0,0,1,2.84,4.06c2.47,1.26,5.47,4.43,6.44,10a32.66,32.66,0,0,1,.46,4.5l.93,10a1.48,1.48,0,0,1,0,.21l.2,31.89,4.19.23V93.21a3.49,3.49,0,0,1,7,0v3.48l4.12.23V93.21a3.48,3.48,0,1,1,7,0v6a2.42,2.42,0,0,1,.05.47l.09,14.71a2.5,2.5,0,0,1-2.27,2.51l-15.59,1.45c0,2.83,0,6.81-.06,10.6,0,5-.06,9.76-.06,10.91a21,21,0,0,1-.83,5.57,2.49,2.49,0,0,1-1.58,1.64l-10.21,3.47-4.51,84.88,18.34,1.18a2.5,2.5,0,0,1,1.21.41,7.17,7.17,0,0,1,2.92,6c0,3-1.54,8.61-1.71,9.24a2.5,2.5,0,0,1-2.1,1.8l-21.23,2.66v1.56a2.46,2.46,0,0,1-.72,1.78,2.52,2.52,0,0,1-1.78.74Z"/><path class="cls-2" d="M105,28.58v.79l5.15,7.81a4.87,4.87,0,0,1,2.38,4.11h0c1.19,0,5.13,2.26,6.23,8.59a28.31,28.31,0,0,1,.42,4.22l.94,10.1.21,34.24,9.18.51V93.21a1,1,0,0,1,2,0v5.85l9.12.5V93.21a1,1,0,1,1,2,0v6.46h.05l.09,14.72-17.85,1.66c0,5.24-.13,21.51-.13,23.79a18.77,18.77,0,0,1-.72,4.84l-11.8,4-4.74,89,20.81,1.34A4.76,4.76,0,0,1,130,243c0,2.74-1.62,8.54-1.62,8.54l-21.47,2.69,0-3.05-2,0,0,7.06h-2l0-7.06-2,0,0,3.05-21.46-2.69S78,245.73,78,243a4.76,4.76,0,0,1,1.79-3.92l20.81-1.34-4.74-89-11.8-4a18.77,18.77,0,0,1-.72-4.84c0-2.28-.11-18.55-.13-23.79l-17.86-1.66.09-14.72h.05V93.21a1,1,0,0,1,2,0v6.35l9.12-.5V93.21a1,1,0,1,1,2,0V99l9.18-.51L88,64.2l1-10.1a28.31,28.31,0,0,1,.42-4.22c1.09-6.33,5-8.59,6.22-8.59h0a4.87,4.87,0,0,1,2.38-4.11l5.15-7.81v-.79H105m0-5h-1.88a5,5,0,0,0-4.93,4.18l-3.86,5.86a9.81,9.81,0,0,0-3.05,4.09C88.3,39.55,85.39,43.24,84.39,49a35.13,35.13,0,0,0-.49,4.79L83,63.73c0,.15,0,.29,0,.44l-.16,26.11A6,6,0,0,0,72,91a6,6,0,0,0-11.53,2.25V99c0,.21,0,.44,0,.66l-.09,14.72a5,5,0,0,0,4.54,5l13.34,1.24c0,2.5,0,5.47,0,8.33,0,5.05.06,9.75.06,10.9a24.13,24.13,0,0,0,.93,6.3,5,5,0,0,0,3.17,3.27l8.61,2.93,4.29,80.72-15.87,1a5,5,0,0,0-2.43.82A9.78,9.78,0,0,0,73,243c0,3.28,1.5,8.85,1.8,9.93a5,5,0,0,0,4.2,3.6l19.06,2.39a5,5,0,0,0,5,4.37h2a5,5,0,0,0,3.55-1.48,4.92,4.92,0,0,0,1.41-2.89L129,256.49a5,5,0,0,0,4.19-3.6c.31-1.08,1.83-6.65,1.81-9.93A9.78,9.78,0,0,0,131,234.9a5,5,0,0,0-2.42-.82l-15.88-1,4.3-80.72,8.6-2.93a5,5,0,0,0,3.17-3.27,23.49,23.49,0,0,0,.94-6.3c0-1.15,0-5.84.06-10.89,0-2.86,0-5.84.05-8.34l13.34-1.24a5,5,0,0,0,4.53-5l-.09-14.72a4.91,4.91,0,0,0-.05-.67V93.21A6,6,0,0,0,136,91a6,6,0,0,0-10.76-.68l-.16-26.11c0-.15,0-.29,0-.44l-.93-9.91a33,33,0,0,0-.48-4.79c-1-5.79-3.92-9.48-6.85-11.33a9.86,9.86,0,0,0-3.06-4.08l-3.86-5.86A5,5,0,0,0,105,23.58Z"/><path class="cls-3" d="M120.3,98.44l-.21-34.24-.94-10.1a28.31,28.31,0,0,0-.42-4.22,13.36,13.36,0,0,0-2.23-5.61c-4.63,6-10.06,12.2-13.23,12.87-2.33.49-8,.17-14.63-.24L88,64.2l-.21,34.24L78.56,99V93.21a1,1,0,1,0-2,0v5.85l-9.12.5V93.21a1,1,0,0,0-2,0v6.46h-.05l-.09,14.72,17.86,1.66c0,1.37,0,3.49,0,5.91a28.55,28.55,0,0,0,3,.18c9.13,0,28.36-11.6,41.7-23.28Z"/><path class="cls-3" d="M130.27,96.8c.4-.36.79-.75,1.18-1.15V93.21a1,1,0,0,0-2,0v4.31Z"/><path class="cls-3" d="M124,144.68a19.09,19.09,0,0,0,.71-4.61c-4.35-.55-10.06-.88-14.08.4-5,1.58-9.64,6.53-14.62,10.08l3,56.94,1.59.65,8.57-3.18,3-56.26Z"/><rect class="cls-2" x="91.25" y="216.36" width="1.76" height="51.77"/><rect class="cls-2" x="87.65" y="216.36" width="1.76" height="51.77"/><rect class="cls-2" x="95.13" y="26.03" width="18" height="10.94" rx="1.75" ry="1.75"/><path class="cls-2" d="M110.12,37.18,105,29.37v-.79h-1.88v.79l-5.15,7.81a5.06,5.06,0,0,0-2,2.32h16.22A5,5,0,0,0,110.12,37.18Z"/><path class="cls-2" d="M121,109.76a10.94,10.94,0,0,0,.66-3,8.85,8.85,0,0,0-.72-2.88H117a8.85,8.85,0,0,0-.72,2.88,10.94,10.94,0,0,0,.66,3Z"/><polygon class="cls-4" points="112.79 145.48 114.03 148.67 117.23 147.49 117.5 148.15 120.37 147.04 120.7 147.82 123.64 146.71 122.2 142.98 122.2 139.19 112.79 142.59 112.79 145.48"/><path class="cls-2" d="M87.08,109.76a11.08,11.08,0,0,1-.65-3,8.85,8.85,0,0,1,.72-2.88h3.92a8.85,8.85,0,0,1,.72,2.88,11.08,11.08,0,0,1-.65,3Z"/><polygon class="cls-4" points="95.26 145.48 94.02 148.67 90.81 147.49 90.55 148.15 87.67 147.04 87.34 147.82 84.4 146.71 85.84 142.98 85.84 139.19 95.26 142.59 95.26 145.48"/><polygon class="cls-2" points="109.44 51.12 110.21 48.67 104.13 48.67 98.05 48.67 98.81 51.12 109.44 51.12"/><polygon class="cls-2" points="95.3 70.72 95.99 81.63 98.44 86.93 99.52 86.93 99.52 69.82 95.3 70.72"/><polygon class="cls-2" points="99.43 68.36 97.75 51.52 96.87 48.67 95.3 48.67 95.3 56.91 96.7 68.96 99.43 68.36"/><polygon class="cls-2" points="108.74 69.82 108.74 86.93 109.82 86.93 112.27 81.63 112.96 70.72 108.74 69.82"/><polygon class="cls-2" points="111.39 48.67 110.51 51.52 108.83 68.36 111.56 68.96 112.96 56.91 112.96 48.67 111.39 48.67"/><polygon class="cls-2" points="104.78 69.71 103.48 69.71 100.7 69.71 100.7 81.53 104.13 81.53 107.56 81.53 107.56 69.71 104.78 69.71"/><polygon class="cls-2" points="103.48 68.28 103.48 68.28 104.13 68.28 104.78 68.28 104.78 68.28 107.66 68.29 109.24 52.42 99.02 52.42 100.6 68.29 103.48 68.28"/><circle class="cls-2" cx="104.02" cy="104.21" r="6"/><rect class="cls-2" x="84.27" y="103.29" width="39.5" height="1.83" transform="translate(-27 171.4) rotate(-72.2)"/><polygon class="cls-2" points="106.28 94.17 132.57 12.29 138.29 14.12 114.49 88.23 106.28 94.17"/><polygon class="cls-2" points="132.57 12.29 138.29 14.12 142.23 8.38 136.52 6.55 132.57 12.29"/><polygon class="cls-2" points="101.76 114.25 75.47 196.13 69.76 194.3 93.55 120.19 101.76 114.25"/><polygon class="cls-2" points="75.47 196.13 69.76 194.3 65.82 200.03 71.53 201.87 75.47 196.13"/><rect class="cls-2" x="84.27" y="103.29" width="39.5" height="1.83" transform="translate(171.21 235.23) rotate(-162.2)"/><polygon class="cls-2" points="12.1 75.66 13.93 69.95 8.2 66 6.36 71.72 12.1 75.66"/><polygon class="cls-2" points="93.99 101.95 12.1 75.66 13.93 69.95 88.04 93.74 93.99 101.95"/><polygon class="cls-2" points="195.95 132.76 194.11 138.47 199.85 142.41 201.68 136.7 195.95 132.76"/><polygon class="cls-2" points="114.06 106.47 195.95 132.76 194.11 138.47 120 114.68 114.06 106.47"/><polygon class="cls-2" points="100.55 118.03 105.41 109.44 99.85 107.65 98.8 117.47 100.55 118.03"/><polygon class="cls-2" points="107.5 90.39 102.64 98.98 108.19 100.77 109.24 90.95 107.5 90.39"/><polygon class="cls-2" points="117.84 107.68 109.25 102.82 107.47 108.38 117.28 109.43 117.84 107.68"/><polygon class="cls-2" points="90.2 100.73 98.8 105.6 100.58 100.04 90.77 98.99 90.2 100.73"/><path class="cls-2" d="M104.07,119.84a15.78,15.78,0,1,1,15.77-15.77A15.8,15.8,0,0,1,104.07,119.84Z"/><path class="cls-1" d="M104.07,89.29a14.78,14.78,0,1,1-14.78,14.78,14.78,14.78,0,0,1,14.78-14.78m0-2a16.78,16.78,0,1,0,16.77,16.78,16.8,16.8,0,0,0-16.77-16.78Z"/><circle class="cls-5" cx="104.07" cy="104.07" r="103.07"/></g></g></svg>