<svg xmlns="http://www.w3.org/2000/svg" viewBox="0 0 279.17 127.46"><defs><style>.cls-1{fill:#a5e5ff;}.cls-2{fill:#596b6a;}</style></defs><title>blue shoval</title><g id="Layer_2" data-name="Layer 2"><g id="Layer_24" data-name="Layer 24"><path class="cls-1" d="M161.43,125a2.47,2.47,0,0,1-1.49-.5,2.42,2.42,0,0,1-.81-1H120a2.51,2.51,0,0,1-2.31,1.54,2.45,2.45,0,0,1-.71-.11l-5.59-1.67a2.5,2.5,0,0,1-1.78-2.4v-8.51a2.49,2.49,0,0,1,.73-1.77l.55-.55c-.24-8.49-.93-32.22-1.43-49.28l-103-8.32a2.49,2.49,0,0,1-1.69-.86,10.05,10.05,0,0,1,0-12.75,2.51,2.51,0,0,1,1.9-.87H109.87A9.7,9.7,0,0,1,113,34.19a2.48,2.48,0,0,1,2.76,0,9.7,9.7,0,0,1,3.11,3.68h11V20.45c0-11.12,5.69-17.95,9.76-17.95s9.76,6.83,9.76,18V37.87h11a9.52,9.52,0,0,1,3.11-3.68,2.44,2.44,0,0,1,1.38-.42,2.48,2.48,0,0,1,1.38.42,9.63,9.63,0,0,1,3.1,3.68h103.2a2.52,2.52,0,0,1,1.9.87,10.05,10.05,0,0,1,0,12.75,2.49,2.49,0,0,1-1.7.86l-103,8.32C169.19,77,168.24,110,168.24,110l.54.55a2.5,2.5,0,0,1,.74,1.77v8.51a2.51,2.51,0,0,1-1.79,2.4l-5.58,1.67A2.57,2.57,0,0,1,161.43,125Zm-.11-16.87C161,98.45,160.42,76.93,160,61H149.34v2.8c0,4.53-1.87,12.43-2.1,13.36a5.08,5.08,0,0,1-3.72,4.09,6.24,6.24,0,0,1-3,2.73,2.45,2.45,0,0,1-1,.19,2.49,2.49,0,0,1-1-.19,6.22,6.22,0,0,1-3-2.73,5.08,5.08,0,0,1-3.73-4.09c-.22-.93-2.1-8.83-2.1-13.36V61H119.21c-.46,15.91-1.09,37.43-1.37,47.07h43.48Z"/><path class="cls-2" d="M139.58,5c2,0,7.26,5,7.26,15.45V40.37h15.24a7.16,7.16,0,0,1,2.73-4.1,7.17,7.17,0,0,1,2.72,4.1h105a7.54,7.54,0,0,1,0,9.49l-105.26,8.5c-.52,17.92-1.3,44.93-1.53,52.59l1.32,1.32v8.51l-5.59,1.68v-1.54h-43.7v1.54l-5.58-1.68v-8.51l1.31-1.32c-.22-7.66-1-34.67-1.52-52.59L6.68,49.86a7.54,7.54,0,0,1,0-9.49h105a7.17,7.17,0,0,1,2.72-4.1,7.16,7.16,0,0,1,2.73,4.1h15.23V20.45C132.32,10,137.54,5,139.58,5m0,76.69a3.39,3.39,0,0,1-2-2.79h-.76c-2,0-2.42-2.23-2.42-2.23s-2.05-8.38-2.05-12.85v-5.3H116.78c-.51,17.64-1.27,44-1.51,52.07H163.9c-.24-8.1-1-34.43-1.51-52.07H146.84v5.3c0,4.47-2,12.85-2,12.85s-.38,2.23-2.42,2.23h-.76a3.41,3.41,0,0,1-2,2.79m0-81.69c-5.92,0-12.26,8.22-12.26,20.45V35.37h-7a12.16,12.16,0,0,0-3.18-3.27,5,5,0,0,0-5.52,0,12.15,12.15,0,0,0-3.18,3.27H6.68a5,5,0,0,0-3.8,1.74,12.55,12.55,0,0,0,0,16,5,5,0,0,0,3.39,1.73L107.07,63c.47,16.15,1.07,37.12,1.33,46a5,5,0,0,0-1.25,3.31v8.51a5,5,0,0,0,3.56,4.79l5.59,1.68a5,5,0,0,0,4.42-.78,5.41,5.41,0,0,0,.62-.55h36.49a4.68,4.68,0,0,0,.62.55,5,5,0,0,0,3,1,5.07,5.07,0,0,0,1.44-.21l5.58-1.68a5,5,0,0,0,3.57-4.79v-8.51a5,5,0,0,0-1.26-3.31c.26-8.86.87-29.83,1.34-46l100.79-8.14a5,5,0,0,0,3.4-1.73,12.55,12.55,0,0,0,0-16,5,5,0,0,0-3.8-1.74H170.74a12.18,12.18,0,0,0-3.17-3.27,5,5,0,0,0-5.52,0,12,12,0,0,0-3.18,3.27h-7V20.45C151.84,8.22,145.5,0,139.58,0Zm12.26,63.52h5.69c.41,14.27.93,32.12,1.22,42.07H120.42c.29-10,.81-27.8,1.22-42.07h5.68v.3c0,4.74,1.82,12.5,2.16,13.9a7.8,7.8,0,0,0,4.5,5.63,8.74,8.74,0,0,0,3.69,3,5,5,0,0,0,1.91.38,5.13,5.13,0,0,0,1.92-.38,8.74,8.74,0,0,0,3.69-3,7.82,7.82,0,0,0,4.5-5.63c.33-1.4,2.15-9.16,2.15-13.9v-.3Z"/></g></g></svg>