<svg xmlns="http://www.w3.org/2000/svg" viewBox="0 0 208.13 272.75"><defs><style>.cls-1{fill:#777;}.cls-2{fill:#aaa;}.cls-3{fill:#ccc;}.cls-4{fill:none;stroke:#aaa;stroke-miterlimit:10;stroke-width:2px;}</style></defs><title>blue yanshuf</title><g id="Layer_2" data-name="Layer 2"><g id="Layer_24" data-name="Layer 24"><path class="cls-1" d="M104.07,267.9a2.48,2.48,0,0,1-1.59-.57,9.45,9.45,0,0,1-3.29-6.89V257.3c-1.68-1.33-3-3.65-3-5.11v-.63c-9.68-.54-22.46-1.23-23.27-1.24-4.17,0-4.35-8.67-4.35-8.75s.22-7.62,3.84-8.22c.7-.12,17.18-1.53,26.43-2.32-.55-12.29-2.93-66.06-3.24-75-1-.84-2.5-1.87-3.09-2.28a2.49,2.49,0,0,1-1.07-2.05v-2.38L84.09,144a2.51,2.51,0,0,1-1-2V104.57a2.48,2.48,0,0,1,1.87-2.42v-.66a2.5,2.5,0,0,1-1.87-2.42v-2a2.48,2.48,0,0,1,1.87-2.42V66.32c0-12.36,2.49-33.09,19.13-33.09S123.19,54,123.19,66.32V94.65a2.49,2.49,0,0,1,1.88,2.42v2a2.51,2.51,0,0,1-1.88,2.42v.66a2.49,2.49,0,0,1,1.88,2.42v37.37a2.52,2.52,0,0,1-1,2l-7.35,5.35v2.38a2.49,2.49,0,0,1-1.07,2.05c-.59.41-2,1.44-3.09,2.28-.31,8.95-2.69,62.72-3.23,75,9.24.79,25.73,2.2,26.43,2.32,3.61.6,3.84,8.14,3.84,8.22s-.19,8.75-4.38,8.75c-.79,0-13.56.7-23.25,1.24v.63c0,1.46-1.31,3.78-3,5.11v3.14a9.49,9.49,0,0,1-3.28,6.89A2.52,2.52,0,0,1,104.07,267.9Z"/><path class="cls-2" d="M104.07,35.73c7.25,0,16.62,5.09,16.62,30.59V97.07h1.88v2h-1.88v5.5h1.88v37.37l-8.38,6.1v3.65s-2.87,2-4.12,3.13c0,2.5-3.38,78.5-3.38,78.5s27.88,2.37,28.63,2.5,1.75,3.5,1.75,5.75-1,6.25-1.88,6.25-25.75,1.37-25.75,1.37v3c0,1.13-2,3.63-3,3.63v4.62a7,7,0,0,1-2.37,5,7,7,0,0,1-2.38-5v-4.62c-1,0-3-2.5-3-3.63v-3s-24.87-1.37-25.75-1.37-1.87-4-1.87-6.25,1-5.63,1.75-5.75,28.62-2.5,28.62-2.5-3.37-76-3.37-78.5c-1.25-1.13-4.13-3.13-4.13-3.13V148l-8.37-6.1V104.57h1.87v-5.5H85.57v-2h1.87V66.32c0-25.5,9.38-30.59,16.63-30.59m0-5A18.07,18.07,0,0,0,89,38.52c-4.41,6-6.55,15.14-6.55,27.8V93.16a5,5,0,0,0-1.87,3.91v2a5,5,0,0,0,.82,2.75,5,5,0,0,0-.82,2.75v37.37a5,5,0,0,0,2.05,4l6.32,4.61v1.1a5,5,0,0,0,2.15,4.11c.57.39,1.34.95,2.06,1.48.42,11.14,2.39,55.74,3.08,71.46-23.37,2-24,2.11-24.24,2.14-5.86,1-5.92,10.29-5.92,10.69s.07,11.19,6.82,11.25c1,0,11.92.62,21.08,1.12a11.1,11.1,0,0,0,2.72,4.5v2a12.09,12.09,0,0,0,4.2,8.82,5,5,0,0,0,6.36,0,12.1,12.1,0,0,0,4.19-8.82v-2a11.1,11.1,0,0,0,2.72-4.5c9.16-.5,20.05-1.09,21.09-1.12,6.74-.06,6.82-10.8,6.82-11.25s-.07-9.71-5.93-10.69c-.22,0-.86-.14-24.24-2.14.7-15.72,2.67-60.32,3.09-71.46.71-.53,1.49-1.09,2.06-1.48a5,5,0,0,0,2.14-4.11v-1.1l6.32-4.61a5,5,0,0,0,2.06-4V104.57a5,5,0,0,0-.83-2.75,5,5,0,0,0,.83-2.75v-2a5,5,0,0,0-1.88-3.91V66.32c0-12.66-2.14-21.75-6.55-27.8a18,18,0,0,0-15.07-7.79Z"/><path class="cls-3" d="M122.57,104.57h-1.88v-5.5h1.88v-2h-1.88V66.32c0-9.7-1.36-16.44-3.44-21.08-5,7-13,17.31-17.17,18.18-2.09.44-6.86.23-12.59-.11,0,1,0,2,0,3V97.07H85.57v2h1.87v5.5H85.57v23.61c9.23-1.6,25-11.1,37-21.14Z"/><path class="cls-3" d="M114.19,151.69V148l2.88-2.1a28.44,28.44,0,0,0-9.66.82c-3.63,1.15-7.1,4.1-10.65,7,.5.38,1,.76,1.31,1.07,0,1.66,1.48,35.73,2.48,58.44l7.14-2.65c1-22.62,2.38-54.2,2.38-55.79C111.32,153.69,114.19,151.69,114.19,151.69Z"/><rect class="cls-2" x="113.28" y="220.98" width="1.76" height="51.77"/><path class="cls-2" d="M87.44,104.57h4.5V91.82c-1.12,0-1.75,1.25-1.75,2.12v5.25H87.44Z"/><polygon class="cls-2" points="85.57 139.69 85.57 141.94 94.07 148.13 94.07 146.07 85.57 139.69"/><rect class="cls-2" x="78.81" y="82.5" width="3.69" height="10.88" rx="1.84" ry="1.84"/><path class="cls-2" d="M100.48,67.23v-7c-.11,0-.22,0-.33,0H94.48a4,4,0,0,0-4,4v3Z"/><path class="cls-2" d="M87.44,67.23h2.13V59.9l-1.44-3.26a64.59,64.59,0,0,0-.69,9.68Z"/><path class="cls-2" d="M120.69,104.57h-4.5V91.82c1.13,0,1.75,1.25,1.75,2.12v5.25h2.75Z"/><rect class="cls-3" x="85.57" y="97.07" width="8.5" height="2.17"/><rect class="cls-3" x="114.07" y="97.07" width="8.5" height="2.17"/><polygon class="cls-2" points="122.57 139.69 122.57 141.94 114.07 148.13 114.07 146.07 122.57 139.69"/><rect class="cls-2" x="125.63" y="82.5" width="3.69" height="10.88" rx="1.84" ry="1.84" transform="translate(254.95 175.88) rotate(180)"/><path class="cls-2" d="M107.65,67.23v-7c.11,0,.22,0,.33,0h5.67a4,4,0,0,1,4,4v3Z"/><path class="cls-2" d="M120.69,67.23h-2.12V59.9L120,56.64a63.29,63.29,0,0,1,.69,9.68Z"/><circle class="cls-2" cx="104.07" cy="104.07" r="6"/><rect class="cls-2" x="84.32" y="103.15" width="39.5" height="1.83" transform="translate(36.77 -26.82) rotate(17.79)"/><polygon class="cls-2" points="117.92 107.55 195.99 132.6 194.16 138.31 120.05 114.53 117.92 107.55"/><polygon class="cls-2" points="195.99 132.6 194.16 138.31 199.9 142.25 201.73 136.54 195.99 132.6"/><polygon class="cls-2" points="90.22 100.58 12.14 75.53 13.97 69.82 88.08 93.6 90.22 100.58"/><polygon class="cls-2" points="12.14 75.53 13.97 69.82 8.23 65.88 6.4 71.59 12.14 75.53"/><rect class="cls-2" x="84.32" y="103.15" width="39.5" height="1.83" transform="translate(-26.82 171.36) rotate(-72.21)"/><polygon class="cls-2" points="107.55 90.22 132.6 12.14 138.31 13.97 114.53 88.08 107.55 90.22"/><polygon class="cls-2" points="132.6 12.14 138.31 13.97 142.25 8.23 136.54 6.4 132.6 12.14"/><polygon class="cls-2" points="100.58 117.92 75.53 195.99 69.82 194.16 93.6 120.05 100.58 117.92"/><polygon class="cls-2" points="75.53 195.99 69.82 194.16 65.88 199.9 71.59 201.73 75.53 195.99"/><path class="cls-2" d="M100.57,51H98c-4.25,0-8.41,2.92-8.41,2.92l2,5.25a4.43,4.43,0,0,1,2.75-.79c1.65,0,4.11-.06,6.3,0Z"/><path class="cls-2" d="M110.15,51h-2.58v7.33c2.18,0,4.65,0,6.29,0a4.43,4.43,0,0,1,2.75.79l2-5.25S114.4,51,110.15,51Z"/><path class="cls-2" d="M106.57,51h-5v7.33h5Z"/><circle class="cls-4" cx="104.07" cy="104.07" r="103.07"/></g></g></svg>