<svg xmlns="http://www.w3.org/2000/svg" viewBox="0 0 174.21 112.89"><defs><style>.cls-1{fill:lightgreen;}.cls-2{fill:green;}.cls-3{fill:darkgreen;}</style></defs><title>blue zic4</title><g id="Layer_2" data-name="Layer 2"><g id="Layer_24" data-name="Layer 24"><path class="cls-1" d="M87.1,110.39c-1.7,0-2.94-1.24-3.5-3.36a2.51,2.51,0,0,1-2.17-1.73s-.12-.37-.31-1l-26.83-3.84a2.52,2.52,0,0,1-2.15-2.53c.12-6.17.24-6.61.31-6.9a4.29,4.29,0,0,1,1.85-2.4,2.49,2.49,0,0,1,1.32-.42l23.1-.56V64.32H5a2.5,2.5,0,0,1-2.5-2.5c0-4.92,0-11,.14-11.76A4.09,4.09,0,0,1,5.05,47a2.42,2.42,0,0,1,1-.2l72.72-1V30.1a123.58,123.58,0,0,1,.76-12.84C80.29,10.39,81.89,2.5,87.1,2.5s6.82,7.89,7.63,14.76a126.82,126.82,0,0,1,.76,12.84V45.76l72.71,1a2.38,2.38,0,0,1,1,.2,4.1,4.1,0,0,1,2.42,3.1c.11.81.14,6.84.14,11.76a2.5,2.5,0,0,1-2.5,2.5H95.49V87.63l23.09.56a2.49,2.49,0,0,1,1.33.42,4.34,4.34,0,0,1,1.85,2.4c.07.29.18.73.3,6.9a2.5,2.5,0,0,1-2.14,2.53l-26.84,3.84c-.19.65-.31,1-.31,1A2.5,2.5,0,0,1,90.61,107C90.05,109.15,88.8,110.39,87.1,110.39Z"/><path class="cls-2" d="M87.1,5C93,5,93,30.1,93,30.1V48.22l75.18,1a1.6,1.6,0,0,1,.92,1.15c.12.81.12,11.41.12,11.41H93V90.07l25.53.62s.7.46.81.92.23,6.35.23,6.35L91.12,102c-.41,1.52-.73,2.5-.73,2.5h-2c-.05,1.87-.62,3.35-1.33,3.35s-1.28-1.48-1.32-3.35h-2s-.31-1-.72-2.5L54.64,98s.12-5.89.23-6.35.81-.92.81-.92l25.54-.62V61.82H5s0-10.6.12-11.41A1.6,1.6,0,0,1,6,49.26l75.18-1V30.1S81.24,5,87.1,5m0-5C79,0,77.59,11.89,77,17a126,126,0,0,0-.78,13.13v13.2L6,44.26a5,5,0,0,0-1.9.4,6.54,6.54,0,0,0-3.9,5C.11,50.08,0,50.86,0,61.82a5,5,0,0,0,5,5H76.22V85.19l-20.66.5a4.92,4.92,0,0,0-2.65.84A6.81,6.81,0,0,0,50,90.4c-.14.56-.25,1-.38,7.46a5,5,0,0,0,4.29,5l25.3,3.63a5,5,0,0,0,2.49,2.54,5.71,5.71,0,0,0,10.77,0A5.05,5.05,0,0,0,95,106.54l25.29-3.63a5,5,0,0,0,4.29-5c-.12-6.45-.24-6.89-.38-7.46a6.81,6.81,0,0,0-2.88-3.87,5,5,0,0,0-2.66-.84L98,85.19V66.82h71.22a5,5,0,0,0,5-5c0-11-.12-11.74-.17-12.12a6.56,6.56,0,0,0-3.9-5,5,5,0,0,0-1.9-.4L98,43.29V30.1A129.22,129.22,0,0,0,97.21,17c-.6-5.07-2-17-10.11-17Z"/><path class="cls-2" d="M85.78,104.54c0,1.87.62,3.35,1.32,3.35s1.28-1.48,1.33-3.35Z"/><path class="cls-3" d="M93,48.22V30.1S93,5,87.1,5s-5.88,25.1-5.88,25.1V48.22l-70.41,1L9.56,61.82H41.69a27.6,27.6,0,0,1,7.64-9.28c9.66-7.34,22.66-1,32.33-1,3,0,7-1.24,11.62-3.31Z"/><path class="cls-3" d="M119.33,91.61c-.11-.46-.81-.92-.81-.92L93,90.07V78.74c-2.87,2.22-5.83,4.14-9,4.8l-2.77.57v6l-25.54.62s-.69.46-.81.92S54.64,98,54.64,98L83.09,102c.41,1.52.72,2.5.72,2.5h2c0,1.87.62,3.35,1.32,3.35s1.28-1.48,1.33-3.35h2s.32-1,.73-2.5L119.56,98S119.45,92.07,119.33,91.61Z"/><path class="cls-2" d="M87.1,5C93,5,93,30.1,93,30.1V48.22l75.18,1a1.6,1.6,0,0,1,.92,1.15c.12.81.12,11.41.12,11.41H93V90.07l25.53.62s.7.46.81.92.23,6.35.23,6.35L91.12,102c-.41,1.52-.73,2.5-.73,2.5h-2c-.05,1.87-.62,3.35-1.33,3.35s-1.28-1.48-1.32-3.35h-2s-.31-1-.72-2.5L54.64,98s.12-5.89.23-6.35.81-.92.81-.92l25.54-.62V61.82H5s0-10.6.12-11.41A1.6,1.6,0,0,1,6,49.26l75.18-1V30.1S81.24,5,87.1,5m0-5C79,0,77.59,11.89,77,17a126,126,0,0,0-.78,13.13v13.2L6,44.26a5,5,0,0,0-1.9.4,6.54,6.54,0,0,0-3.9,5C.11,50.08,0,50.86,0,61.82a5,5,0,0,0,5,5H76.22V85.19l-20.66.5a4.92,4.92,0,0,0-2.65.84A6.81,6.81,0,0,0,50,90.4c-.14.56-.25,1-.38,7.46a5,5,0,0,0,4.29,5l25.3,3.63a5,5,0,0,0,2.49,2.54,5.71,5.71,0,0,0,10.77,0A5.05,5.05,0,0,0,95,106.54l25.29-3.63a5,5,0,0,0,4.29-5c-.12-6.45-.24-6.89-.38-7.46a6.81,6.81,0,0,0-2.88-3.87,5,5,0,0,0-2.66-.84L98,85.19V66.82h71.22a5,5,0,0,0,5-5c0-11-.12-11.74-.17-12.12a6.56,6.56,0,0,0-3.9-5,5,5,0,0,0-1.9-.4L98,43.29V30.1A129.22,129.22,0,0,0,97.21,17c-.6-5.07-2-17-10.11-17Z"/><path class="cls-2" d="M85.78,104.54c0,1.87.62,3.35,1.32,3.35s1.28-1.48,1.33-3.35Z"/><path class="cls-2" d="M85.78,104.54c0,1.87.62,3.35,1.32,3.35s1.28-1.48,1.33-3.35Z"/><path class="cls-2" d="M85.78,104.54c0,1.87.62,3.35,1.32,3.35s1.28-1.48,1.33-3.35Z"/><path class="cls-2" d="M85.78,104.54c0,1.87.62,3.35,1.32,3.35s1.28-1.48,1.33-3.35Z"/><rect class="cls-2" x="74.99" y="109.46" width="24.23" height="1.02"/><path class="cls-3" d="M169.09,50.41a1.6,1.6,0,0,0-.92-1.15l-23-.32a31.83,31.83,0,0,0-.81,8.6c.09.88.39,2.47.76,4.28h24.12S169.21,51.22,169.09,50.41Z"/></g></g></svg>